# xmcd
#
# Track frame offsets: 
#        183
#        16658
#        37783
#        57995
#        74733
#        98620
#        114670
#        142333
#
# Disc length: 2152 seconds
#
# Revision: 2
# Processed by: cddbd v1.5.2PL0 Copyright (c) Steve Scherf et al.
# Submitted via: ExactAudioCopyFreeDBPlugin 1.0
#
DISCID=6b086608
DTITLE=Patty Pravo - Miss Italia
DYEAR=1978
DGENRE=Pop
TTITLE0=Johnny
TTITLE1=Sentirti
TTITLE2=Bello Mio
TTITLE3=Notti Bianche (It's A Heartache)
TTITLE4=Marva (Sometimes Man)
TTITLE5=Bello
TTITLE6=Dai Sali Su
TTITLE7=Pensiero Stupendo
EXTD=
EXTT0=
EXTT1=
EXTT2=
EXTT3=
EXTT4=
EXTT5=
EXTT6=
EXTT7=
PLAYORDER=
